PathFileType	4	(X/Y/Z)	joints.trc
DataRate	CameraRate	NumFrames	NumMarkers	Units	OrigDataRate	OrigDataStartFrame	OrigNumFrames
30.0	30.0	13	24	m	30.0	41	120
Frame#	Time	pelvis			femur_r			tibia_r			talus_r			calcn_r			toes_r			femur_l			tibia_l			talus_l			calcn_l			toes_l			lumbar_body			thorax			head			scapula_r			humerus_r			ulna_r			radius_r			hand_r			scapula_l			humerus_l			ulna_l			radius_l			hand_l		
		X1	Y1	Z1	X2	Y2	Z2	X3	Y3	Z3	X4	Y4	Z4	X5	Y5	Z5	X6	Y6	Z6	X7	Y7	Z7	X8	Y8	Z8	X9	Y9	Z9	X10	Y10	Z10	X11	Y11	Z11	X12	Y12	Z12	X13	Y13	Z13	X14	Y14	Z14	X15	Y15	Z15	X16	Y16	Z16	X17	Y17	Z17	X18	Y18	Z18	X19	Y19	Z19	X20	Y20	Z20	X21	Y21	Z21	X22	Y22	Z22	X23	Y23	Z23	X24	Y24	Z24
41	1.333333	0.017073	0.776468	-0.188927	-0.004930	0.819671	-0.120337	-0.107827	0.404261	0.020245	-0.127890	0.073386	-0.132210	-0.123275	0.007286	-0.225489	-0.162860	0.015105	-0.014320	0.106352	0.799028	-0.062638	0.175676	0.392265	0.124994	0.213438	0.070764	-0.116885	0.202263	-0.009034	-0.127126	0.228874	-0.001438	0.026442	0.029613	0.982724	-0.051852	0.037537	1.322059	0.110993	-0.002351	1.487854	0.155192	-0.174014	1.490462	0.063976	-0.169388	1.245233	0.072678	-0.193009	1.038427	-0.166395	-0.178230	1.089700	-0.163060	-0.346516	0.887464	-0.275801	0.225117	1.567656	0.080778	0.195834	1.197151	0.075318	0.262307	1.041446	-0.072970	0.270708	1.040484	-0.042436	0.469045	0.853508	-0.158291
42	1.366667	0.017940	0.740403	-0.187956	-0.008665	0.775722	-0.120380	-0.107581	0.381226	0.045898	-0.127807	0.066874	-0.121803	-0.122964	0.004398	-0.220310	-0.164746	0.012332	-0.009996	0.105754	0.756124	-0.062313	0.176170	0.369384	0.154841	0.216821	0.070700	-0.117754	0.205321	-0.010554	-0.128148	0.232948	-0.002396	0.024229	0.031677	0.941329	-0.061901	0.038269	1.275202	0.107155	0.001027	1.439306	0.149734	-0.172817	1.433366	0.063890	-0.168221	1.194901	0.070829	-0.198068	0.976216	-0.145095	-0.185396	1.022974	-0.143760	-0.356467	0.812482	-0.237187	0.224553	1.509441	0.073781	0.196556	1.140285	0.069079	0.258240	0.984125	-0.066535	0.266387	0.974976	-0.038721	0.454780	0.784339	-0.134589
43	1.400000	0.018130	0.714278	-0.181368	-0.011639	0.745394	-0.115210	-0.106418	0.362514	0.064012	-0.126807	0.062198	-0.115100	-0.122319	0.002725	-0.217121	-0.164839	0.010368	-0.008221	0.105257	0.726626	-0.058513	0.176501	0.349240	0.172146	0.219779	0.069313	-0.121765	0.207899	-0.011972	-0.132136	0.236415	-0.004297	0.019000	0.032636	0.912730	-0.067975	0.040451	1.245097	0.099371	0.005706	1.409465	0.136735	-0.170895	1.398725	0.061570	-0.165011	1.161865	0.066834	-0.206069	0.927509	-0.117157	-0.195394	0.969935	-0.119678	-0.374389	0.748163	-0.181620	0.225769	1.476447	0.061506	0.198926	1.101422	0.058865	0.255796	0.942204	-0.056855	0.263653	0.924895	-0.033680	0.443539	0.728487	-0.100077
44	1.433333	0.017475	0.701095	-0.169203	-0.013501	0.732590	-0.105580	-0.105963	0.351969	0.073174	-0.127156	0.059195	-0.112112	-0.122699	0.001882	-0.216754	-0.166097	0.008948	-0.008636	0.104219	0.714242	-0.050845	0.176545	0.336354	0.178775	0.222089	0.067373	-0.125133	0.209845	-0.013880	-0.135511	0.239465	-0.006826	0.014820	0.031985	0.901346	-0.067202	0.043371	1.236374	0.092400	0.009899	1.402861	0.122878	-0.169033	1.391939	0.060526	-0.161230	1.153230	0.065093	-0.219820	0.906292	-0.085127	-0.210600	0.945814	-0.093071	-0.402811	0.716427	-0.114334	0.229272	1.472674	0.050322	0.203084	1.089302	0.050190	0.259192	0.925889	-0.045384	0.266879	0.903175	-0.027112	0.443855	0.702511	-0.056307
45	1.466667	0.015707	0.714920	-0.154572	-0.013069	0.753691	-0.092711	-0.106185	0.359675	0.069972	-0.128786	0.059176	-0.109878	-0.122759	0.000352	-0.214782	-0.168124	0.007316	-0.005326	0.102730	0.735450	-0.040408	0.176723	0.344577	0.166559	0.222585	0.068567	-0.125689	0.209756	-0.017194	-0.136242	0.242047	-0.007548	0.013215	0.028792	0.922435	-0.055419	0.045794	1.264822	0.090160	0.012323	1.434995	0.113617	-0.168551	1.431834	0.062464	-0.159018	1.187126	0.068232	-0.241911	0.935463	-0.057823	-0.232961	0.975242	-0.072258	-0.443768	0.746548	-0.049780	0.233264	1.514730	0.045972	0.206564	1.122236	0.047955	0.272642	0.954059	-0.032863	0.280400	0.931915	-0.018259	0.465677	0.733845	-0.009818
46	1.500000	0.012843	0.760403	-0.137852	-0.009010	0.813835	-0.076357	-0.109516	0.391501	0.051672	-0.132431	0.065748	-0.111654	-0.124148	0.001964	-0.212761	-0.170861	0.005341	-0.006352	0.101932	0.795564	-0.027434	0.181491	0.381003	0.134771	0.225068	0.080307	-0.125728	0.211138	-0.017528	-0.136442	0.245818	0.000087	0.009498	0.023079	0.980054	-0.033425	0.047423	1.336529	0.086111	0.013471	1.511320	0.102096	-0.170002	1.524446	0.061505	-0.158426	1.266045	0.069293	-0.265090	1.014631	-0.050711	-0.255019	1.057978	-0.070748	-0.490006	0.836206	-0.016573	0.236395	1.611368	0.041534	0.208443	1.203907	0.045137	0.290761	1.029413	-0.033339	0.299035	1.013963	-0.021314	0.504815	0.821522	0.011947
47	1.533333	0.009184	0.840138	-0.122052	-0.001959	0.915100	-0.058309	-0.115971	0.460485	0.031475	-0.135718	0.091925	-0.097341	-0.122650	0.015926	-0.186180	-0.168861	0.008406	0.005062	0.101325	0.896128	-0.014564	0.195007	0.449633	0.086575	0.232545	0.109309	-0.103949	0.217563	-0.016222	-0.115683	0.246838	0.022515	0.017537	0.015796	1.075710	-0.009596	0.050378	1.449125	0.076595	0.015182	1.629822	0.083390	-0.171697	1.665796	0.055100	-0.156142	1.383678	0.064800	-0.279554	1.131935	-0.054689	-0.266964	1.180755	-0.077452	-0.527858	0.969717	-0.011880	0.241176	1.761481	0.031585	0.211350	1.325098	0.037883	0.303531	1.141228	-0.036119	0.312621	1.135212	-0.028328	0.543723	0.947695	0.020261
48	1.566667	0.005678	0.944792	-0.116426	0.005482	1.044440	-0.047209	-0.130033	0.566427	0.020318	-0.148557	0.144150	-0.053536	-0.121780	0.054346	-0.129240	-0.176916	0.038071	0.027225	0.102755	1.024965	-0.005335	0.204876	0.556550	0.036468	0.237818	0.178671	-0.046547	0.220071	0.017894	-0.059709	0.239318	0.086986	0.030872	0.009060	1.197214	0.013154	0.053680	1.579873	0.067759	0.014932	1.764709	0.066668	-0.173956	1.827184	0.049934	-0.153884	1.518183	0.062036	-0.295545	1.260059	-0.052782	-0.280298	1.314393	-0.078684	-0.567381	1.109665	0.001602	0.246073	1.933463	0.022439	0.213450	1.462922	0.031901	0.313913	1.268607	-0.035940	0.323626	1.273144	-0.031652	0.578646	1.092143	0.028865
49	1.600000	0.004167	1.026769	-0.122339	0.012521	1.142200	-0.047315	-0.144238	0.664123	0.020115	-0.172162	0.231085	-0.014083	-0.123991	0.137104	-0.094854	-0.207664	0.138087	0.075762	0.101086	1.121993	-0.005805	0.214219	0.652335	0.010317	0.252366	0.266556	-0.007173	0.231753	0.105563	-0.020557	0.264855	0.169173	0.066999	0.006570	1.289128	0.023191	0.057166	1.675403	0.068849	0.016012	1.862098	0.065770	-0.174410	1.942210	0.050731	-0.151096	1.616689	0.065281	-0.310437	1.362028	-0.049328	-0.293039	1.421609	-0.075771	-0.598676	1.225555	0.005399	0.250829	2.058721	0.022461	0.215602	1.567817	0.033898	0.328304	1.367920	-0.029048	0.338313	1.382304	-0.026126	0.611790	1.208237	0.034464
50	1.633333	0.003734	1.075558	-0.133247	0.015946	1.198753	-0.050749	-0.150461	0.720132	0.024489	-0.183668	0.288008	-0.004247	-0.126685	0.193745	-0.092116	-0.224982	0.202669	0.088148	0.100867	1.177750	-0.008958	0.223432	0.709101	0.009350	0.265868	0.328930	0.000911	0.242871	0.170231	-0.011762	0.286596	0.227374	0.075663	0.005437	1.341024	0.024240	0.057214	1.730264	0.068243	0.014899	1.918428	0.064717	-0.176404	2.007323	0.049782	-0.152378	1.672714	0.065355	-0.318050	1.422766	-0.050963	-0.299278	1.485878	-0.077791	-0.616358	1.296731	0.003633	0.251634	2.130090	0.022395	0.215643	1.630060	0.033743	0.334912	1.428152	-0.032310	0.345016	1.449784	-0.028891	0.627875	1.279532	0.031336
51	1.666667	0.003835	1.096999	-0.139338	0.016967	1.222833	-0.053599	-0.152343	0.743970	0.026334	-0.186936	0.312754	-0.004368	-0.128189	0.218277	-0.095027	-0.229965	0.229748	0.090695	0.102012	1.201454	-0.009611	0.229221	0.733869	0.011842	0.272765	0.355416	-0.003998	0.248891	0.197092	-0.015973	0.295264	0.252166	0.072298	0.006255	1.363453	0.019737	0.056878	1.754126	0.064635	0.013422	1.942638	0.060044	-0.177366	2.036769	0.044524	-0.153135	1.696392	0.059939	-0.318078	1.447321	-0.059149	-0.298629	1.511751	-0.087088	-0.623141	1.327921	-0.001614	0.251756	2.162408	0.019554	0.216154	1.656104	0.030742	0.337631	1.452292	-0.036488	0.347965	1.476544	-0.033146	0.636926	1.309186	0.029335
52	1.700000	0.004199	1.096615	-0.139355	0.017300	1.221380	-0.054374	-0.153471	0.742482	0.023653	-0.187943	0.309043	-0.010040	-0.130611	0.215085	-0.101500	-0.230881	0.226456	0.087869	0.103486	1.200177	-0.009096	0.236770	0.733885	0.014148	0.280906	0.355452	-0.008791	0.256641	0.197230	-0.020832	0.303927	0.249924	0.069702	0.007215	1.362211	0.018216	0.055527	1.753192	0.059382	0.011215	1.941082	0.053675	-0.177906	2.036693	0.038074	-0.153962	1.694793	0.053021	-0.315867	1.445406	-0.068773	-0.296349	1.509623	-0.098404	-0.626234	1.331362	-0.005008	0.250359	2.163397	0.015701	0.215693	1.656094	0.026649	0.338261	1.451525	-0.040537	0.348885	1.475777	-0.037744	0.641685	1.310353	0.029965
53	1.733333	0.004977	1.069041	-0.132969	0.016278	1.188059	-0.052792	-0.152719	0.706415	0.012841	-0.185161	0.268964	-0.029316	-0.134932	0.177428	-0.119689	-0.225739	0.186384	0.073587	0.105104	1.167456	-0.006281	0.246320	0.701231	0.018724	0.290796	0.319409	-0.018105	0.267172	0.161934	-0.030971	0.311697	0.211287	0.066547	0.008827	1.331288	0.015684	0.053351	1.720994	0.052277	0.008431	1.906042	0.044757	-0.177273	1.999590	0.029295	-0.154257	1.660894	0.042764	-0.308208	1.410631	-0.082005	-0.289273	1.472858	-0.113822	-0.621076	1.300388	-0.009403	0.247323	2.124739	0.010200	0.214699	1.622134	0.020648	0.335314	1.418472	-0.043709	0.346208	1.439359	-0.041780	0.638256	1.273774	0.029555
